<svg width="34" height="34" viewBox="0 0 34 34" fill="none" xmlns="http://www.w3.org/2000/svg">
<path d="M17 0C7.6 0 0 7.6 0 17C0 26.4 7.6 34 17 34C26.4 34 34 26.4 34 17C34 7.6 26.4 0 17 0ZM30 16H24C24 12 23.4 8 22.2 5C26.4 7 29.6 11 30 16ZM17 30C16.2 29.6 14.4 26.4 14 20H19.8C19.4 26.4 17.8 29.6 17 30ZM14 16C14.2 8.4 16.2 4.4 16.8 4C17.6 4.4 19.6 8.4 19.8 16H14ZM11.8 5C10.6 8 10.2 12 10 16H4C4.4 11 7.6 7 11.8 5ZM4.4 20H10C10.2 23.2 10.8 26.4 11.8 29C8.2 27.4 5.4 24 4.4 20ZM22.2 29C23.2 26.4 23.8 23.4 24 20H29.8C28.6 24 25.8 27.4 22.2 29Z" fill="#FF1C03"/>
</svg>
